PathFileType        4      (X/Y/Z)      C:\Users\cpontonn\Documents\TRAVAIL - COURS\DIGISPORT\Partage Nico\Partage Nico DIGISPORT\TP OPENSIM - eleves - work\DATA\transformed_Marche0007.trc         
DataRate	CameraRate	NumFrames	NumMarkers	Units	OrigDataRate	OrigDataStartFrame	OrigNumFrames
100.0	100.0	6	38	mm	100.0	104	414
Frame#	Time	LFHD			LBHD			RFHD			RBHD			C7			T10			CLAV			STRN			LSHO			LRAD			LHUM			LWRB			LWRA			LCAR			RSHO			RRAD			RHUM			RWRB			RWRA			RCAR			LFWT			LBWT			RFWT			RBWT			LKNE			LKNI			LANE			LHEE			LANI			LTAR			LTOE			RKNE			RKNI			RANE			RHEE			RANI			RTAR			RTOE			
		X1	Y1	Z1	X2	Y2	Z2	X3	Y3	Z3	X4	Y4	Z4	X5	Y5	Z5	X6	Y6	Z6	X7	Y7	Z7	X8	Y8	Z8	X9	Y9	Z9	X10	Y10	Z10	X11	Y11	Z11	X12	Y12	Z12	X13	Y13	Z13	X14	Y14	Z14	X15	Y15	Z15	X16	Y16	Z16	X17	Y17	Z17	X18	Y18	Z18	X19	Y19	Z19	X20	Y20	Z20	X21	Y21	Z21	X22	Y22	Z22	X23	Y23	Z23	X24	Y24	Z24	X25	Y25	Z25	X26	Y26	Z26	X27	Y27	Z27	X28	Y28	Z28	X29	Y29	Z29	X30	Y30	Z30	X31	Y31	Z31	X32	Y32	Z32	X33	Y33	Z33	X34	Y34	Z34	X35	Y35	Z35	X36	Y36	Z36	X37	Y37	Z37	X38	Y38	Z38	
104	1.03	-1418.89209	1702.00293	191.91016999999994	-1565.62732	1696.91614	192.4852099999999	-1413.62122	1689.0072	326.6063199999999	-1575.29431	1678.87231	318.07143999999994	-1645.74438	1572.90137	264.0071999999999	-1763.6991	1364.48608	249.56878999999986	-1537.90796	1469.01514	256.48351999999994	-1533.36194	1287.9231	244.33002999999988	-1604.46436	1539.83948	58.829629999999895	-1665.2959	1178.47144	-29.62034000000013	-1686.55396	1179.49097	32.93938999999987	-1562.93372	945.46173	-71.34286000000013	-1520.66687	946.9668	-6.459810000000129	-1490.76233	885.52856	-74.23013000000013	-1600.14441	1502.98486	450.0491599999999	-1722.89807	1145.11414	495.7406899999998	-1749.03589	1159.42773	441.8665199999998	-1706.40344	885.9223	515.0852699999998	-1668.5509	877.44775	452.85265999999984	-1683.57385	802.08691	508.4834599999998	-1544.42847	1019.11572	130.21309999999986	-1732.54932	1058.28271	215.41561999999985	-1527.62341	1029.48193	321.2305899999999	-1728.45776	1056.8916	296.8279699999998	-1762.90881	527.52661	59.84262999999982	-1761.48071	484.19229	170.4401699999998	-2093.60938	210.91016	118.95458999999975	-2201.85962	229.90999	179.16588999999973	-2075.9375	213.5862	205.79983999999973	-2051.87183	44.295069999999996	112.44491999999974	-2006.54956	25.02841999999999	199.45000999999974	-1420.50281	553.9447	387.4844699999999	-1410.87439	513.38373	291.5262799999999	-1390.68384	89.88296999999997	360.7930299999998	-1464.77856	25.281109999999984	292.3738999999998	-1379.35168	117.38888999999999	270.80346999999983	-1233.18604	43.157179999999975	386.14907999999986	-1174.72473	55.97519999999998	304.49242999999984	
105	1.04	-1404.34253	1705.15405	196.62923999999995	-1551.0824	1700.18018	196.20740999999992	-1399.91418	1690.56677	331.1891499999999	-1561.56592	1680.65674	321.57638999999995	-1631.90918	1575.24304	266.1740099999999	-1749.08728	1366.82483	250.70368999999985	-1523.4917	1472.02539	258.0630499999999	-1519.18201	1291.13391	245.5383499999999	-1590.30188	1543.2854	60.8313899999999	-1654.68506	1182.34509	-25.64030000000013	-1675.41248	1183.91248	37.00213999999986	-1558.3092	946.55005	-69.16698000000012	-1515.40686	946.84045	-4.457010000000128	-1489.09387	884.77173	-73.42006000000013	-1585.75476	1505.18652	451.71316999999993	-1706.24976	1146.76099	496.9639599999998	-1732.67273	1161.06873	443.27624999999983	-1688.69812	887.80292	516.5128199999998	-1651.43848	879.2002	453.8858299999998	-1666.08972	803.65106	509.5022599999998	-1529.49768	1021.52808	132.08796999999987	-1717.53345	1061.03162	215.62574999999987	-1512.51904	1032.90186	322.6887799999999	-1713.19812	1060.28882	297.03249999999986	-1737.94653	526.85388	57.93187999999982	-1734.07983	481.92029	167.81814999999983	-2074.4104	219.10022	117.97996999999975	-2178.32349	247.5918	180.94738999999979	-2054.45923	220.83458	204.75896999999975	-2048.33984	47.357049999999994	112.65248999999974	-2002.92517	24.42246999999999	198.37194999999974	-1410.71326	554.13519	388.83947999999987	-1400.84912	513.73199	292.5532199999999	-1389.39087	89.61075999999997	360.83144999999985	-1464.57715	25.64811999999998	292.5704999999998	-1378.23413	117.13950999999999	270.7743199999998	-1232.41113	42.01886999999998	386.2900099999998	-1174.13708	53.32035999999998	303.98031999999984	
106	1.05	-1389.83484	1708.20557	201.28214999999994	-1535.47888	1703.14575	198.6472799999999	-1386.37549	1692.04395	335.74227999999994	-1547.9314	1682.37439	324.77840999999995	-1618.10718	1577.60217	268.0208099999999	-1734.80969	1369.19641	251.84713999999988	-1509.11353	1474.89758	259.56273999999996	-1504.62744	1294.20532	246.5959599999999	-1576.11853	1546.57373	62.5814899999999	-1644.24146	1186.12305	-22.046900000000132	-1664.50952	1188.43787	40.630149999999865	-1554.88635	948.11407	-65.75629000000013	-1510.93945	946.79663	-2.126750000000127	-1487.16113	884.12897	-70.98299000000013	-1571.39404	1507.52148	453.2000699999999	-1689.84851	1148.51306	498.32757999999984	-1716.49585	1162.77661	444.72103999999985	-1670.59436	889.80939	517.9677699999997	-1633.87646	881.27948	455.04339999999985	-1647.99976	805.42676	510.53945999999985	-1514.85071	1024.16357	133.66190999999986	-1702.79211	1063.79407	216.52064999999985	-1497.48901	1035.93152	323.8949899999999	-1698.11902	1063.62378	297.8983799999998	-1712.25134	526.25378	56.49900999999982	-1706.04333	479.9671	165.79781999999983	-2053.61035	226.50168	117.04783999999975	-2151.85425	263.56393	182.99036999999979	-2031.07996	226.74615	203.84994999999975	-2043.02551	51.56497999999999	112.42569999999975	-1998.60669	23.511209999999988	197.13785999999973	-1401.58679	553.72589	389.64382999999987	-1392.3147	513.21436	292.8843699999999	-1388.66931	89.43973999999997	360.3432599999998	-1464.53027	25.64576999999998	292.6068099999998	-1377.66345	116.60838999999999	270.2022099999998	-1231.96057	41.637639999999976	385.96621999999985	-1173.97595	51.44447999999998	303.0714399999998	
107	1.06	-1374.29932	1711.35156	205.88920999999993	-1520.90222	1706.26135	201.8668999999999	-1372.93457	1693.45728	340.12075999999996	-1534.35938	1684.16431	327.74233999999996	-1604.26062	1579.98511	269.55758999999995	-1720.70093	1371.61096	253.0878399999999	-1494.95227	1477.66528	260.76525999999996	-1490.28552	1297.19324	247.52967999999993	-1561.92822	1549.57788	64.05140999999992	-1633.89905	1189.77234	-18.852170000000125	-1653.81323	1192.81677	43.72114999999987	-1551.04578	949.60028	-62.77188000000014	-1506.57092	946.82654	0.47352999999987344	-1485.61316	883.42883	-68.70985000000013	-1556.9928	1509.89136	454.5048499999999	-1673.64966	1150.31067	499.7212799999998	-1700.53271	1164.47888	446.2469199999998	-1652.26709	891.75647	519.3209799999997	-1615.91492	883.422	456.2394999999999	-1629.55884	807.36774	511.63018999999986	-1500.4989	1026.81653	134.96030999999988	-1688.34021	1066.51184	218.04932999999986	-1482.78381	1038.60168	324.9398799999999	-1683.31104	1066.84863	299.38939999999985	-1686.10693	525.94769	55.572719999999826	-1677.8783	478.55328	164.22968999999983	-2031.79944	233.52298	116.94700999999976	-2123.24487	277.83585	185.01204999999976	-2006.7356	230.64253	203.22561999999974	-2037.979	55.59387999999999	112.17668999999974	-1993.68738	22.17103999999999	195.88286999999974	-1392.69958	552.87683	389.7298899999999	-1384.2782	512.3515	292.1672099999999	-1388.16199	89.37165999999998	359.6879299999998	-1464.51111	25.55370999999998	292.5234399999998	-1377.31201	116.08244999999998	269.4794299999998	-1231.71863	41.49862999999998	385.68346999999983	-1173.81897	49.91689999999998	302.3446999999998	
108	1.07	-1359.70117	1714.21423	210.20574999999994	-1506.27478	1709.42053	204.84903999999995	-1359.53137	1694.85303	344.23690999999997	-1520.84375	1685.99353	330.38707999999997	-1590.30493	1582.51489	270.92220999999995	-1706.66882	1374.11768	254.51644999999988	-1479.73926	1480.40112	261.54421999999994	-1476.29407	1299.97144	248.28438999999992	-1547.84717	1552.3595	65.23217999999991	-1623.53528	1193.13049	-16.134430000000123	-1643.33118	1196.95349	46.24289999999987	-1547.07483	951.02063	-59.825930000000135	-1502.31982	946.91913	3.205299999999874	-1483.98474	882.69879	-65.94463000000013	-1542.61084	1512.28467	455.63881999999995	-1657.58813	1152.10181	501.30922999999984	-1684.73645	1166.1189	447.94723999999985	-1633.8645	893.83154	520.5695799999997	-1597.67004	885.79492	457.3146999999999	-1610.62097	809.40961	512.6755999999998	-1486.97034	1029.29065	136.06875999999988	-1674.21057	1069.16101	220.00281999999987	-1468.39404	1040.82129	325.8659999999999	-1668.75586	1069.76111	301.1343699999998	-1659.8739	526.23004	54.95319999999983	-1650.02905	478.17056	163.26151999999982	-2007.66321	238.57518	116.17985999999978	-2092.58472	290.2309	187.09749999999977	-1981.3385	233.04022	203.04491999999976	-2029.75867	61.000409999999995	112.85880999999976	-1987.73877	20.39487999999999	194.04867999999973	-1384.29041	551.91779	389.3721899999999	-1378.86169	511.34485	291.89373999999987	-1387.80237	89.37165999999998	359.2214399999998	-1464.49426	25.434749999999983	292.46108999999984	-1376.91321	115.67386999999998	268.7563499999998	-1231.58923	41.39026999999998	385.52450999999985	-1173.91772	48.899679999999975	302.06753999999984	
109	1.08	-1345.05225	1716.97656	214.20617999999993	-1491.59424	1712.60938	207.57238999999996	-1346.0741	1696.2334	348.07393999999994	-1507.29883	1688.00903	332.7448999999999	-1576.21106	1585.22632	272.09630999999996	-1692.72021	1376.73291	256.1390099999998	-1465.68799	1482.96045	262.37096999999994	-1462.57629	1302.4801	248.86371999999992	-1533.93616	1554.87402	66.18354999999991	-1613.12695	1196.31335	-13.809720000000125	-1633.05493	1200.90552	48.14744999999987	-1542.57971	952.52991	-57.49415000000013	-1498.23694	947.12793	6.1214899999998735	-1482.3324	882.02844	-63.14435000000013	-1528.24548	1514.72021	456.6426399999999	-1641.6311	1153.95508	503.0418999999998	-1669.12305	1167.73352	449.77227999999985	-1615.37622	895.8595	521.7656299999998	-1579.27417	888.1687	458.4469899999999	-1591.37488	811.62244	513.7378499999998	-1474.46973	1031.77466	137.0221399999999	-1660.41638	1071.66101	221.98972999999987	-1454.41455	1042.8988	326.8257099999999	-1654.42542	1072.35132	302.8050799999998	-1633.51416	526.909	54.673499999999834	-1622.63037	478.75781	162.76255999999984	-1982.92004	243.60056	115.62506999999977	-2059.91235	300.25476	190.77489999999977	-1955.51794	235.06891	202.9583899999998	-2019.25598	66.83067	113.57865999999976	-1978.97241	20.75880999999999	190.72510999999975	-1376.11694	551.31732	388.9120799999999	-1373.3197	511.00031	291.2193599999999	-1387.58704	89.43168999999997	358.70608999999985	-1464.50964	25.351509999999983	292.4082599999998	-1376.698	115.43678999999999	268.22384999999986	-1231.54895	41.36589999999998	385.3391399999998	-1173.99585	48.11516999999998	301.82869999999986	
